<svg viewBox="0 0 90 53" xmlns="http://www.w3.org/2000/svg">
<path d="M61.771 47.027h-6.885l-2.738-5.881s-.443-1.195-2.014-.598c-1.39.896-.383 2.229-.383 2.229l2.8 4.296h-1.43c-.423 0-1.068.62-.504 1.425.564.803 3.464 3.262 3.464 3.262l-.887-2.849h5.477l-1.772 3.997s4.913-3.974 5.376-4.342c.503-.368.664-1.562-.504-1.54Zm-21.905-6.479c-1.571-.597-2.014.598-2.014.598l-2.738 5.88h-6.886c-1.168-.022-1.007 1.172-.504 1.54.464.368 5.376 4.342 5.376 4.342l-1.772-3.997h5.477l-.886 2.849s2.9-2.459 3.463-3.262c.564-.804-.08-1.425-.503-1.425h-1.43l2.8-4.296s1.006-1.333-.383-2.229ZM90 3.174 61.845 13.489c-1.72-3.705-4.765-5.917-4.765-5.917s3.685 5.279 2.568 11.374c-.725 4.587-3.987 7.014-6.675 7.81-3 .578-2.597 3.313-2.597 3.313s.403 3.62 4.41 2.298l1.811 10.465 5.98-1.214-4.957-10.814a11.485 11.485 0 0 0 1.908-1.888l9.27 10.883 6.101-4.02-13.538-9.9c.34-.76.64-1.584.888-2.477l17.603 6.69 4.41-8.416-21.33-1.972.008-.076a11.22 11.22 0 0 0-.046-2.618l23.602-3.372L90 3.174ZM45 0l-6.81 10.538h13.62L45 0Zm-6.805 10.548-6.81 10.539H58.615l-6.81-10.539L45 21.078l-6.805-10.53Zm13.45 26.048c-1.27-.413-1.994-1.895-2.356-2.687-.363-.793-1.118-3.722-2.416-5.376C45.574 26.879 45 23.639 45 23.639s-.574 3.24-1.872 4.894c-1.3 1.654-2.054 4.583-2.417 5.376-.362.792-1.087 2.274-2.355 2.687 0 0 4.953 2.068 4.832 4.205-.12 2.137-.483 3.17-1.087 3.997 0 0 2.899 7.168 2.899 8.202 0-1.034 2.9-8.202 2.9-8.202-.605-.827-.967-1.86-1.088-3.997-.12-2.137 4.832-4.205 4.832-4.205Zm-21.173-7.68L21.202 39.8l-6.101-4.02 13.538-9.9a17.44 17.44 0 0 1-.888-2.477l-17.603 6.69-4.41-8.416 21.33-1.972-.008-.076a11.22 11.22 0 0 1 .046-2.618L3.504 13.638 0 3.174l28.155 10.315c1.72-3.705 4.765-5.917 4.765-5.917s-3.685 5.279-2.568 11.374c.725 4.587 3.987 7.014 6.675 7.81 3 .578 2.597 3.313 2.597 3.313s-.403 3.62-4.41 2.298l-1.811 10.465-5.98-1.214 4.957-10.814a11.487 11.487 0 0 1-1.908-1.888Z" fill="#B99F65" fill-rule="evenodd"></path>
</svg>